<?xml version="1.0" encoding="UTF-8" standalone="no"?>
<svg
   id="Capa_1"
   viewBox="0 0 253.74806 260.88997"
   version="1.1"
   sodipodi:docname="logo_citic_no_text.svg"
   width="253.74806"
   height="260.88998"
   inkscape:version="1.4 (e7c3feb100, 2024-10-09)"
   xmlns:inkscape="http://www.inkscape.org/namespaces/inkscape"
   xmlns:sodipodi="http://sodipodi.sourceforge.net/DTD/sodipodi-0.dtd"
   xmlns="http://www.w3.org/2000/svg"
   xmlns:svg="http://www.w3.org/2000/svg">
  <sodipodi:namedview
     id="namedview9"
     pagecolor="#ffffff"
     bordercolor="#000000"
     borderopacity="0.25"
     inkscape:showpageshadow="2"
     inkscape:pageopacity="0.0"
     inkscape:pagecheckerboard="0"
     inkscape:deskcolor="#d1d1d1"
     inkscape:zoom="0.81245767"
     inkscape:cx="126.77584"
     inkscape:cy="129.85292"
     inkscape:window-width="1920"
     inkscape:window-height="1008"
     inkscape:window-x="0"
     inkscape:window-y="0"
     inkscape:window-maximized="1"
     inkscape:current-layer="Capa_1" />
  <defs
     id="defs1">
    <style
       id="style1">.cls-1{fill:#ffa400;}</style>
  </defs>
  <rect
     class="cls-1"
     x="119.39823"
     y="148.65648"
     width="18.549999"
     height="55.650002"
     transform="rotate(-30.01)"
     id="rect1" />
  <rect
     class="cls-1"
     x="156.56772"
     y="148.53763"
     width="18.549999"
     height="55.639999"
     transform="rotate(-30)"
     id="rect2" />
  <polygon
     class="cls-1"
     points="520.01,386.95 503.93,377.68 531.76,329.49 547.82,338.76 "
     id="polygon2"
     transform="translate(-294.07194,-167.19)" />
  <polygon
     class="cls-1"
     points="487.88,368.41 471.81,359.13 499.64,310.95 515.71,320.21 "
     id="polygon3"
     transform="translate(-294.07194,-167.19)" />
  <rect
     class="cls-1"
     x="99.04805"
     y="37.089996"
     width="55.639999"
     height="18.549999"
     id="rect3" />
  <polygon
     class="cls-1"
     points="370.08,236.14 354.01,226.87 326.19,275.05 342.25,284.34 "
     id="polygon4"
     transform="translate(-294.07194,-167.19)" />
  <rect
     class="cls-1"
     x="-77.354004"
     y="44.678364"
     width="55.639999"
     height="18.549999"
     transform="rotate(-59.99)"
     id="rect4" />
  <rect
     class="cls-1"
     x="-85.766396"
     y="148.55983"
     width="18.549999"
     height="55.639999"
     transform="rotate(-30)"
     id="rect5" />
  <polygon
     class="cls-1"
     points="354.01,368.41 370.08,359.13 342.25,310.95 326.19,320.21 "
     id="polygon5"
     transform="translate(-294.07194,-167.19)" />
  <rect
     class="cls-1"
     x="99.04805"
     y="0"
     width="55.639999"
     height="18.540001"
     id="rect6" />
  <rect
     class="cls-1"
     x="99.04805"
     y="37.089996"
     width="55.639999"
     height="18.549999"
     id="rect7" />
  <rect
     class="cls-1"
     x="99.04805"
     y="242.34"
     width="55.639999"
     height="18.549999"
     id="rect8" />
  <rect
     class="cls-1"
     x="99.04805"
     y="205.25"
     width="55.639999"
     height="18.549999"
     id="rect9" />
</svg>
