<?xml version="1.0" encoding="UTF-8" standalone="no"?>
<!-- Generator: Adobe Illustrator 17.0.0, SVG Export Plug-In . SVG Version: 6.00 Build 0)  -->

<svg
   version="1.1"
   x="0px"
   y="0px"
   width="15.257806cm"
   height="4.9921846cm"
   viewBox="0 0 576.673 188.681"
   enable-background="new 0 0 576.673 188.681"
   xml:space="preserve"
   id="svg114"
   sodipodi:docname="logotipo_GTEC.svg"
   inkscape:version="1.3 (0e150ed6c4, 2023-07-21)"
   xmlns:inkscape="http://www.inkscape.org/namespaces/inkscape"
   xmlns:sodipodi="http://sodipodi.sourceforge.net/DTD/sodipodi-0.dtd"
   xmlns="http://www.w3.org/2000/svg"
   xmlns:svg="http://www.w3.org/2000/svg"><defs
     id="defs114" /><sodipodi:namedview
     id="namedview114"
     pagecolor="#ffffff"
     bordercolor="#000000"
     borderopacity="0.25"
     inkscape:showpageshadow="2"
     inkscape:pageopacity="0.0"
     inkscape:pagecheckerboard="0"
     inkscape:deskcolor="#d1d1d1"
     inkscape:zoom="1.1392939"
     inkscape:cx="321.25161"
     inkscape:cy="44.3257"
     inkscape:window-width="1920"
     inkscape:window-height="1011"
     inkscape:window-x="0"
     inkscape:window-y="0"
     inkscape:window-maximized="1"
     inkscape:current-layer="Acrónimo_GTEC"
     inkscape:document-units="cm" /><g
     id="Símbolo_del_logo"
     style="fill:#000000"><path
       mask="none"
       fill="#2B6CAF"
       d="m 46.406,26.725 c 5.533,5.533 5.363,14.344 0,20.043 -19.471,20.687 -34.298,46.728 -31.346,85.113 0.277,3.615 -4.76,-2.465 -5.906,-5.906 -11.811,-35.432 -5.842,-77.418 17.208,-99.25 5.683,-5.385 14.509,-5.537 20.044,0 z"
       id="path113"
       style="fill:none;stroke:#000000" /><path
       mask="none"
       fill="#2B6CAF"
       d="m 163.326,45.117 c -5.533,5.533 -14.344,5.363 -20.043,0 C 122.595,25.647 96.554,10.819 58.17,13.772 c -3.615,0.277 2.465,-4.76 5.906,-5.906 35.431,-11.811 77.417,-5.842 99.249,17.208 5.385,5.683 5.538,14.508 0.001,20.043 z"
       id="path109"
       style="fill:none;stroke:#000000" /><path
       mask="none"
       fill="#2B6CAF"
       d="m 144.933,162.037 c -5.533,-5.533 -5.363,-14.344 0,-20.043 19.471,-20.688 34.298,-46.729 31.346,-85.113 -0.277,-3.615 4.76,2.465 5.906,5.906 11.811,35.432 5.842,77.418 -17.208,99.25 -5.684,5.385 -14.509,5.537 -20.044,0 z"
       id="path111"
       style="fill:none;stroke:#000000" /><path
       mask="none"
       fill="#2B6CAF"
       d="m 28.013,143.644 c 5.533,-5.533 14.344,-5.363 20.043,0 20.688,19.471 46.729,34.298 85.113,31.346 3.615,-0.277 -2.465,4.76 -5.906,5.906 -35.431,11.811 -77.417,5.842 -99.249,-17.208 -5.386,-5.684 -5.538,-14.509 -10e-4,-20.044 z"
       id="path107"
       style="fill:none;stroke:#000000" /></g><g
     id="Acrónimo_GTEC"><path
       d="m 339.628,86.374 h -15.917 -0.205 -47.13 v 15.93 h 47.2 c -3.712,22.723 -23.425,40.067 -47.197,40.067 -26.418,0 -47.835,-21.416 -47.835,-47.835 0,-26.418 21.416,-47.835 47.835,-47.835 14.01,0 26.613,6.024 35.362,15.623 l 13.031,-9.308 c -11.697,-13.621 -29.031,-22.26 -48.393,-22.26 -35.224,0 -63.78,28.555 -63.78,63.78 0,35.224 28.555,63.78 63.78,63.78 35.224,0 63.78,-28.555 63.78,-63.78 -10e-4,-2.766 -0.189,-5.488 -0.531,-8.162 z"
       id="path104"
       style="fill:none;stroke:#000000" /><path
       d="m 314.796,30.564 c 7.062,4.264 13.357,9.665 18.649,15.94 h 27.675 v 111.61 h 16.236 V 46.504 h 18.62 v -15.94 z"
       id="path103"
       style="fill:none;stroke:#000000" /><path
       d="m 463.939,142.184 h -46.713 v -39.87 h 29.694 c -0.28,-2.622 -0.43,-5.283 -0.43,-7.98 0,-2.69 0.149,-5.344 0.427,-7.96 h -29.692 v -39.87 h 46.697 c 5.252,-6.245 11.505,-11.62 18.523,-15.862 v -0.078 h -81.17 v 127.55 h 81.17 v -0.088 c -7.01,-4.237 -13.257,-9.605 -18.506,-15.842 z"
       id="path105"
       style="fill:none;stroke:#000000" /><path
       d="m 520.866,142.169 c -26.418,0 -47.835,-21.416 -47.835,-47.835 0,-26.418 21.416,-47.835 47.835,-47.835 15.645,0 29.534,7.513 38.262,19.125 l 13.008,-9.746 C 560.443,40.314 541.832,30.246 520.867,30.246 c -35.395,0 -64.088,28.693 -64.088,64.088 0,35.395 28.693,64.088 64.088,64.088 20.967,0 39.581,-10.071 51.273,-25.637 l -12.881,-9.916 c -8.72,11.712 -22.67,19.3 -38.393,19.3 z"
       id="path106"
       style="fill:none;stroke:#000000" /></g></svg>
